<svg width="12" height="14" viewBox="0 0 12 14" fill="none" xmlns="http://www.w3.org/2000/svg">
<path d="M0.75 3.49984H1.91667M1.91667 3.49984H11.25M1.91667 3.49984V11.6665C1.91667 11.9759 2.03958 12.2727 2.25838 12.4915C2.47717 12.7103 2.77391 12.8332 3.08333 12.8332H8.91667C9.22609 12.8332 9.52283 12.7103 9.74162 12.4915C9.96042 12.2727 10.0833 11.9759 10.0833 11.6665V3.49984H1.91667ZM3.66667 3.49984V2.33317C3.66667 2.02375 3.78958 1.72701 4.00838 1.50821C4.22717 1.28942 4.52391 1.1665 4.83333 1.1665H7.16667C7.47609 1.1665 7.77283 1.28942 7.99162 1.50821C8.21042 1.72701 8.33333 2.02375 8.33333 2.33317V3.49984M4.83333 6.4165V9.9165M7.16667 6.4165V9.9165" stroke="#214177" stroke-width="1.5" stroke-linecap="round" stroke-linejoin="round"/>
</svg>
