<svg width="16" height="16" viewBox="0 0 16 16" fill="none" xmlns="http://www.w3.org/2000/svg">
<path d="M9.34909 9.34909C9.17431 9.53666 8.96355 9.6871 8.72937 9.79144C8.49519 9.89578 8.24239 9.95189 7.98606 9.95641C7.72972 9.96094 7.4751 9.91378 7.23739 9.81777C6.99967 9.72175 6.78373 9.57884 6.60245 9.39755C6.42116 9.21627 6.27825 9.00033 6.18223 8.76261C6.08622 8.5249 6.03906 8.27028 6.04358 8.01394C6.04811 7.75761 6.10421 7.50481 6.20856 7.27063C6.3129 7.03645 6.46334 6.82569 6.65091 6.65091M1 1L15 15M11.78 11.78C10.6922 12.6092 9.36761 13.0685 8 13.0909C3.54545 13.0909 1 8 1 8C1.79157 6.52484 2.88945 5.23602 4.22 4.22L11.78 11.78ZM6.66364 3.06182C7.10167 2.95929 7.55013 2.90803 8 2.90909C12.4545 2.90909 15 8 15 8C14.6137 8.72266 14.153 9.40301 13.6255 10.03L6.66364 3.06182Z" stroke="#214177" stroke-width="1.5" stroke-linecap="round" stroke-linejoin="round"/>
</svg>
